<?xml version="1.0" standalone="no"?><!DOCTYPE svg PUBLIC "-//W3C//DTD SVG 1.1//EN" "http://www.w3.org/Graphics/SVG/1.1/DTD/svg11.dtd"><svg t="1763690525330" class="icon" viewBox="0 0 1024 1024" version="1.1" xmlns="http://www.w3.org/2000/svg" p-id="2577" xmlns:xlink="http://www.w3.org/1999/xlink" width="48" height="48"><path d="M0 512c0 278.801067 222.805333 505.344 499.882667 512-241.732267-6.144-435.8656-189.627733-435.8656-416.1536 0-229.614933 200.277333-416.170667 447.658666-416.170667 52.753067 0 95.778133-43.042133 95.778134-95.829333 0-52.7872-43.008-95.8464-95.778134-95.8464C228.949333 0 0.017067 229.085867 0.017067 512H0z m1024 0C1024 233.198933 801.194667 6.656 524.117333 0c241.732267 5.632 435.8656 189.627733 435.8656 416.1536 0 229.614933-200.789333 416.170667-447.658666 416.170667-52.753067 0-95.778133 43.042133-95.778134 95.829333 0 52.7872 43.008 95.8464 95.778134 95.8464 282.7264 0 511.658667-229.085867 511.658666-512H1024z" fill="#8a8a8a" p-id="2578"></path></svg>